PathFileType	4	(x/y/z)	S10_PSF_T07
DataRate	CameraRate	NumFrames	NumMarkers	Units	OrigDataRate	OrigDataStartFrame	OrigNumFrames
240	240	8	51	mm	240	270	431
Frame#	Time	Sternum			R.Acromium			L.Acromium			Top.Head			R.ASIS			L.ASIS			R.PSIS			L.PSIS			R.Great.Tro			L.Great.Tro			R.Iliac.Crest			L.Iliac.Crest			V.Sacral			R.Thigh.Upper.Post			R.Thigh.Lower.Ant			R.Thigh.Lower.Post			R.Thigh.Upper.Ant			R.Knee.Lat			R.Knee.Med			R.Shank.Upper.Post			R.Shank.Lower.Ant			R.Shank.Lower.Post			R.Shank.Upper.Ant			R.Ankle.Lat			R.Ankle.Med			R.Heel.Upper			R.Heel.Med			R.Heel.Lat			R.Toe.Lat			R.Toe.Med			R.Toe.Tip			L.Thigh.Upper.Post			L.Thigh.Lower.Ant			L.Thigh.Lower.Post			L.Thigh.Upper.Ant			L.Knee.Lat			L.Knee.Med			L.Shank.Upper.Post			L.Shank.Lower.Ant			L.Shank.Lower.Post			L.Shank.Upper.Ant			L.Ankle.Lat			L.Ankle.Med			L.Heel.Upper			L.Heel.Med			L.Heel.Lat			L.Toe.Lat			L.Toe.Med			L.Toe.Tip			Cervical.Spine			Back			
		X1	Y1	Z1	X2	Y2	Z2	X3	Y3	Z3	X4	Y4	Z4	X5	Y5	Z5	X6	Y6	Z6	X7	Y7	Z7	X8	Y8	Z8	X9	Y9	Z9	X10	Y10	Z10	X11	Y11	Z11	X12	Y12	Z12	X13	Y13	Z13	X14	Y14	Z14	X15	Y15	Z15	X16	Y16	Z16	X17	Y17	Z17	X18	Y18	Z18	X19	Y19	Z19	X20	Y20	Z20	X21	Y21	Z21	X22	Y22	Z22	X23	Y23	Z23	X24	Y24	Z24	X25	Y25	Z25	X26	Y26	Z26	X27	Y27	Z27	X28	Y28	Z28	X29	Y29	Z29	X30	Y30	Z30	X31	Y31	Z31	X32	Y32	Z32	X33	Y33	Z33	X34	Y34	Z34	X35	Y35	Z35	X36	Y36	Z36	X37	Y37	Z37	X38	Y38	Z38	X39	Y39	Z39	X40	Y40	Z40	X41	Y41	Z41	X42	Y42	Z42	X43	Y43	Z43	X44	Y44	Z44	X45	Y45	Z45	X46	Y46	Z46	X47	Y47	Z47	X48	Y48	Z48	X49	Y49	Z49	X50	Y50	Z50	X51	Y51	Z51	

270	1.1208	141.6	1239	306.29	57.334	1403.3	470.57	-7.1558	1419.8	174.5	-32.198	1710.5	338.87	93.547	966.85	437.19	78.235	994.37	208.67	-113.12	995.63	360.7	-113.97	1003.7	279.1	9.3012	895.22	515.5	19.673	935.52	150.44	5.397	1050.8	486.66	8.0069	1066.2	185	-134.33	964.88	324.37	-53.029	696.76	502.2	-29.698	606.09	459.83	-92.32	617.35	486.66	13.544	685.84	472.26	-152.7	504.91	448.13	-156.93	515.3	320.09	-310.42	328.19	450.75	-276.31	243.94	430.28	-338.85	260.19	442.8	-239.48	311.31	437.71	-369.04	151.14	418.24	-357.08	159.72	339.64	-447.16	119.02	372.12	-445.37	91.634	344.56	-449.71	93.96	405.99	-287.97	39.52	450.57	-257.01	41.554	341.28	-198.44	45.148	383.14	77.114	657.14	151.94	174.2	607.31	174.26	110.48	569.81	174.61	147.87	691.69	152.36	176.44	505.54	183.51	183.75	505.51	314.66	196.76	283.95	186.1	293.09	229.97	198.8	230.32	213.82	196.02	260.12	299	189.3	311.13	111.49	206.39	320.03	128.59	291.7	263.39	65.071	253.58	285.32	39.342	288.42	279.28	37.986	223.74	446.19	85.502	183.88	468.78	106.74	288.4	511.83	138.81	241.43	-49.99	1464.7	348.35	-137.71	1258	353.63
271	1.125	147.8	1237.8	305.6	63.338	1402.2	469.75	-1.2278	1418.6	173.71	-26.687	1709.5	338.32	99.806	965.89	436.52	84.353	993.68	208.02	-106.95	994.65	360.17	-107.9	1002.9	278.59	15.475	894.12	514.87	25.866	934.94	149.86	11.614	1049.8	486.09	14.093	1065.5	184.39	-128.14	963.92	323.79	-46.807	695.72	501.55	-23.235	605.01	459.4	-85.93	616.22	486.1	19.785	684.85	471.76	-146.22	503.69	447.68	-150.29	513.96	319.63	-305.94	328.87	450.78	-273.09	244.13	430.23	-335.39	261.31	443.12	-235.27	311.01	437.57	-367.2	152.66	418.65	-355.04	160.97	339.98	-445.61	121.43	372.51	-444.23	94.147	344.83	-448.56	96.312	406.31	-287.66	39.575	450.68	-256.73	41.518	341.43	-198.29	45.022	383.15	84.45	656.87	151.75	181.58	607.32	174.74	117.87	569.65	174.69	155.12	691.59	152.64	183.66	505.37	183.95	190.5	505.53	314.9	201.92	283.71	186.42	297.65	228.83	199.37	234.8	213.28	196.27	265.37	298.17	190	314.15	110.59	206.64	323.08	127.08	292.2	265.6	65.697	254.04	286.7	39.304	288.73	280.7	38.283	224.01	448.47	82.054	184.38	471.43	102.75	288.88	515.23	133.83	241.91	-43.922	1463.8	347.57	-131.61	1257	352.99
272	1.1292	154.03	1236.8	304.89	69.352	1401.2	468.92	4.7178	1417.5	172.91	-21.183	1708.5	337.76	106.08	964.97	435.84	90.477	993.06	207.37	-100.77	993.73	359.64	-101.81	1002	278.09	21.679	893.03	514.2	32.083	934.43	149.27	17.853	1048.8	485.51	20.192	1064.7	183.79	-121.93	963.01	323.2	-40.466	694.66	500.85	-16.607	603.94	458.93	-79.38	615.06	485.5	26.139	683.88	471.2	-139.52	502.41	447.22	-143.45	512.57	319.14	-301.29	329.57	450.77	-269.71	244.35	430.19	-331.77	262.46	443.43	-230.9	310.72	437.43	-365.22	154.27	419.06	-352.87	162.27	340.33	-443.91	124.01	372.89	-442.95	96.817	345.08	-447.29	98.832	406.61	-287.32	39.656	450.79	-256.42	41.475	341.59	-198.14	44.892	383.15	91.78	656.66	151.59	188.97	607.4	175.22	125.26	569.56	174.79	162.37	691.56	152.94	190.9	505.29	184.39	197.27	505.62	315.14	207.05	283.57	186.7	302.15	227.74	199.91	239.2	212.82	196.47	270.59	297.4	190.67	316.99	109.73	206.84	326	125.6	292.65	267.62	66.374	254.44	287.87	39.327	288.98	281.91	38.644	224.22	450.5	78.563	184.78	473.88	98.684	289.24	518.44	128.73	242.26	-37.841	1462.9	346.76	-125.5	1256.1	352.34
273	1.1333	160.28	1235.7	304.17	75.373	1400.3	468.08	10.681	1416.5	172.11	-15.685	1707.5	337.2	112.35	964.12	435.14	96.604	992.51	206.72	-94.584	992.87	359.11	-95.73	1001.3	277.6	27.912	891.97	513.5	38.32	934	148.66	24.108	1047.9	484.92	26.305	1064.1	183.19	-115.72	962.16	322.61	-34.003	693.58	500.12	-9.8117	602.86	458.43	-72.664	613.86	484.88	32.609	682.94	470.61	-132.58	501.08	446.74	-136.4	511.1	318.64	-296.44	330.29	450.74	-266.16	244.59	430.15	-327.97	263.66	443.72	-226.35	310.44	437.3	-363.08	155.96	419.47	-350.54	163.64	340.66	-442.04	126.75	373.25	-441.52	99.651	345.31	-445.86	101.53	406.89	-286.95	39.768	450.89	-256.11	41.427	341.75	-197.98	44.759	383.15	99.09	656.52	151.45	196.33	607.55	175.71	132.63	569.53	174.89	169.59	691.6	153.26	198.17	505.29	184.82	204.05	505.8	315.39	212.16	283.53	186.94	306.59	226.72	200.42	243.56	212.47	196.62	275.78	296.72	191.31	319.67	108.93	206.98	328.8	124.19	293.05	269.46	67.091	254.8	288.87	39.408	289.17	282.92	39.061	224.37	452.31	75.077	185.07	476.16	94.599	289.48	521.47	123.56	242.47	-31.751	1462.1	345.94	-119.4	1255.3	351.69
274	1.1375	166.55	1234.8	303.43	81.401	1399.4	467.23	16.661	1415.5	171.29	-10.195	1706.6	336.63	118.62	963.33	434.44	102.73	992.03	206.06	-88.4	992.06	358.59	-89.646	1000.6	277.11	34.17	890.94	512.77	44.576	933.64	148.06	30.375	1047.1	484.32	32.427	1063.5	182.59	-109.51	961.36	322.01	-27.416	692.5	499.36	-2.8459	601.8	457.9	-65.78	612.64	484.22	39.2	682.04	469.97	-125.42	499.68	446.26	-129.14	509.57	318.13	-291.39	331.03	450.67	-262.43	244.87	430.12	-324	264.91	443.98	-221.63	310.17	437.16	-360.75	157.74	419.86	-348.04	165.07	340.99	-439.96	129.66	373.58	-439.93	102.66	345.51	-444.26	104.42	407.14	-286.55	39.918	450.98	-255.77	41.376	341.91	-197.81	44.619	383.14	106.37	656.45	151.32	203.66	607.78	176.19	139.98	569.56	174.98	176.77	691.71	153.59	205.45	505.39	185.24	210.81	506.05	315.63	217.25	283.6	187.14	310.98	225.77	200.89	247.87	212.21	196.71	280.96	296.1	191.9	322.19	108.19	207.09	331.5	122.84	293.4	271.15	67.835	255.11	289.73	39.545	289.32	283.79	39.524	224.49	453.94	71.64	185.27	478.28	90.538	289.63	524.32	118.4	242.57	-25.653	1461.4	345.1	-113.29	1254.5	351.03
275	1.1417	172.83	1233.8	302.67	87.433	1398.6	466.37	22.659	1414.5	170.46	-4.7104	1705.7	336.05	124.88	962.6	433.73	108.86	991.63	205.41	-82.22	991.31	358.07	-83.566	999.99	276.63	40.448	889.94	512.02	50.846	933.38	147.44	36.645	1046.3	483.7	38.557	1063	182	-103.29	960.64	321.4	-20.705	691.41	498.57	4.2929	600.74	457.33	-58.725	611.38	483.54	45.914	681.16	469.28	-118.02	498.22	445.78	-121.64	507.98	317.61	-286.15	331.8	450.56	-258.52	245.19	430.1	-319.82	266.2	444.21	-216.73	309.92	437.03	-358.23	159.61	420.23	-345.35	166.57	341.31	-437.68	132.75	373.88	-438.14	105.84	345.67	-442.47	107.51	407.36	-286.11	40.113	451.07	-255.41	41.325	342.05	-197.64	44.471	383.12	113.6	656.44	151.19	210.96	608.06	176.65	147.3	569.66	175.07	183.9	691.89	153.92	212.73	505.56	185.65	217.55	506.37	315.86	222.33	283.77	187.29	315.32	224.89	201.34	252.14	212.06	196.76	286.12	295.56	192.45	324.56	107.51	207.17	334.11	121.58	293.71	272.7	68.592	255.38	290.47	39.73	289.43	284.53	40.024	224.58	455.38	68.294	185.39	480.24	86.547	289.7	526.98	113.28	242.57	-19.55	1460.7	344.26	-107.18	1253.8	350.36
276	1.1458	179.13	1233	301.9	93.469	1397.8	465.5	28.674	1413.6	169.64	0.76773	1704.9	335.46	131.13	961.94	433.02	114.97	991.3	204.76	-76.049	990.62	357.55	-77.491	999.45	276.16	46.744	888.97	511.25	57.127	933.2	146.83	42.913	1045.6	483.07	44.693	1062.6	181.42	-97.08	959.97	320.79	-13.869	690.31	497.75	11.607	599.69	456.74	-51.496	610.09	482.84	52.755	680.33	468.57	-110.37	496.72	445.31	-113.92	506.31	317.1	-280.69	332.6	450.42	-254.41	245.55	430.08	-315.44	267.54	444.4	-211.64	309.7	436.91	-355.49	161.57	420.58	-342.47	168.14	341.61	-435.16	136.02	374.13	-436.14	109.21	345.8	-440.48	110.8	407.53	-285.63	40.361	451.14	-255.03	41.279	342.2	-197.45	44.313	383.1	120.79	656.49	151.06	218.2	608.41	177.08	154.59	569.82	175.13	190.99	692.14	154.24	220.01	505.82	186.03	224.27	506.77	316.09	227.4	284.03	187.39	319.61	224.08	201.76	256.36	212	196.77	291.27	295.09	192.97	326.8	106.9	207.22	336.61	120.41	293.98	274.12	69.349	255.62	291.13	39.957	289.51	285.16	40.549	224.64	456.68	65.076	185.44	482.06	82.663	289.7	529.48	108.28	242.49	-13.446	1460.1	343.4	-101.09	1253.1	349.7
277	1.15	185.43	1232.2	301.12	99.504	1397.1	464.62	34.704	1412.8	168.8	6.2404	1704.2	334.87	137.35	961.35	432.31	121.08	991.04	204.12	-69.891	989.99	357.04	-71.425	998.98	275.69	53.051	888.04	510.46	63.413	933.11	146.21	49.169	1045	482.44	50.832	1062.2	180.85	-90.877	959.37	320.18	-6.9065	689.2	496.92	19.097	598.66	456.12	-44.092	608.78	482.13	59.723	679.53	467.82	-102.5	495.16	444.84	-105.95	504.57	316.59	-275.02	333.42	450.24	-250.09	245.95	430.08	-310.85	268.93	444.54	-206.37	309.52	436.8	-352.53	163.63	420.89	-339.36	169.78	341.89	-432.38	139.48	374.33	-433.92	112.78	345.88	-438.25	114.32	407.65	-285.09	40.671	451.19	-254.62	41.242	342.33	-197.25	44.142	383.07	127.92	656.61	150.92	225.38	608.82	177.48	161.83	570.05	175.17	198.02	692.45	154.54	227.28	506.14	186.4	230.96	507.24	316.32	232.47	284.39	187.43	323.84	223.33	202.18	260.53	212.04	196.75	296.4	294.69	193.44	328.92	106.36	207.26	339.01	119.35	294.23	275.42	70.095	255.82	291.71	40.217	289.57	285.72	41.088	224.68	457.83	62.022	185.44	483.74	78.922	289.66	531.8	103.43	242.36	-7.3444	1459.6	342.54	-95.009	1252.6	349.03
